<svg width="12" height="12" viewBox="0 0 12 12" fill="none" xmlns="http://www.w3.org/2000/svg">
<path d="M6 0C2.68625 0 0 2.68625 0 6C0 9.31375 2.68625 12 6 12C9.31375 12 12 9.31375 12 6C12 2.68625 9.31375 0 6 0ZM6.54823 9.45576H5.4303V8.38448H6.54823V9.45576ZM6.54823 7.24013V7.59433H5.4303V7.15839C5.4303 5.84148 6.92886 5.63259 6.92886 4.69671C6.92886 4.27026 6.54782 3.94331 6.0483 3.94331C5.53062 3.94331 5.07651 4.32476 5.07651 4.32476L4.44076 3.53378C4.44076 3.53378 5.06702 2.87904 6.14779 2.87904C7.17407 2.87904 8.12729 3.51479 8.12729 4.58649C8.12729 6.08587 6.54741 6.25843 6.54741 7.23971L6.54823 7.24013Z" fill="#A34AF6"/>
</svg>
