<svg width="75" height="75" viewBox="0 0 75 75" fill="none" xmlns="http://www.w3.org/2000/svg">
<g clip-path="url(#clip0_860_420)">
<path d="M50 12.5C51.725 12.5 53.125 13.9 53.125 15.625V28.75L69.4156 17.3438C70.1219 16.85 71.0969 17.0219 71.5937 17.7312C71.775 17.9937 71.875 18.3062 71.875 18.625V56.375C71.875 57.2375 71.175 57.9375 70.3125 57.9375C69.9906 57.9375 69.6781 57.8375 69.4156 57.6562L53.125 46.25V59.375C53.125 61.1 51.725 62.5 50 62.5H6.25C4.525 62.5 3.125 61.1 3.125 59.375V15.625C3.125 13.9 4.525 12.5 6.25 12.5H50ZM46.875 18.75H9.375V56.25H46.875V18.75ZM28.125 25L40.625 37.5H31.25V50H25V37.5H15.625L28.125 25ZM65.625 27.6281L53.125 36.3781V38.6219L65.625 47.3719V27.6281Z" fill="#A34AF6" fill-opacity="0.33"/>
</g>
<defs>
<clipPath id="clip0_860_420">
<rect width="75" height="75" fill="white"/>
</clipPath>
</defs>
</svg>
